<?xml version="1.0" encoding="UTF-8"?>
<svg width="22px" height="20px" viewBox="0 0 22 20" version="1.1" xmlns="http://www.w3.org/2000/svg" xmlns:xlink="http://www.w3.org/1999/xlink">
    <!-- Generator: Sketch 63 (92445) - https://sketch.com -->
    <title>25619</title>
    <desc>Created with Sketch.</desc>
    <g id="Page-1" stroke="none" stroke-width="1" fill="none" fill-rule="evenodd">
        <g id="products_Box" transform="translate(-1164.000000, -36.000000)">
            <g id="Group-9">
                <g id="Group-32">
                    <rect id="Rectangle" stroke="#E4E8EB" fill="#FFFFFF" x="-0.5" y="-0.5" width="1441" height="98"></rect>
                    <rect id="Rectangle" fill="#EC0924" opacity="0.199823289" x="1152" y="21" width="50" height="50" rx="7"></rect>
                    <g id="25619" transform="translate(1164.000000, 36.000000)" fill="#EC0924" fill-rule="nonzero">
                        <path d="M17,18.2068966 C17,18.6639769 17.146887,19.0539354 17.439594,19.3769533 C17.7323009,19.7002883 18.0859543,19.862069 18.5003078,19.862069 C18.9140457,19.862069 19.2676991,19.7002883 19.560406,19.3769533 C19.8534003,19.0539354 20,18.6639769 20,18.2068966 C20,17.7498162 19.8535644,17.3598577 19.560406,17.0365228 C19.2676991,16.7135048 18.9140457,16.5517241 18.5003078,16.5517241 C18.0859543,16.5517241 17.7323009,16.7135048 17.439594,17.0365228 C17.146887,17.3598577 17,17.7498162 17,18.2068966 Z" id="Path"></path>
                        <path d="M21.748735,2.11190358 C21.5811941,1.92988544 21.3829975,1.83885121 21.1537749,1.83885121 L5.27526922,1.83885121 C5.26633185,1.77187135 5.2465122,1.64983818 5.21567133,1.47265104 C5.18483047,1.29536326 5.1606579,1.15415704 5.14301471,1.04868012 C5.1252789,0.94365611 5.0924005,0.816640964 5.04382383,0.668188237 C4.99533977,0.519634865 4.93805727,0.402181081 4.87197632,0.316179146 C4.80598799,0.229724304 4.71786463,0.155699232 4.60765254,0.0932484413 C4.49753307,0.031200234 4.37185424,0 4.23089391,0 L0.846317704,0 C0.617002467,0 0.418713322,0.0911852 0.251265039,0.272951725 C0.083770449,0.454919541 0,0.670553416 0,0.919551413 C0,1.16854941 0.083770449,1.38408264 0.251265039,1.56605046 C0.418852245,1.74806859 0.617187697,1.83900218 0.846317704,1.83900218 L3.54313342,1.83900218 L5.88314909,13.6636896 C5.86564481,13.701935 5.77529868,13.8837519 5.61215701,14.209593 C5.44910795,14.5354342 5.31912251,14.8202621 5.22224701,15.0644794 C5.12532521,15.3089987 5.07684115,15.498062 5.07684115,15.6320721 C5.07684115,15.8810701 5.1606116,16.0966536 5.32801357,16.2789234 C5.49569339,16.460388 5.69393623,16.5517241 5.92311254,16.5517241 L6.76924502,16.5517241 L18.6154238,16.5517241 L19.4610469,16.5517241 C19.6901769,16.5517241 19.8885587,16.4604383 20.0559606,16.2789234 C20.2235941,16.096704 20.307272,15.8811204 20.307272,15.6320721 C20.307272,15.3830238 20.2235941,15.1674402 20.0559606,14.985573 C19.888605,14.8037059 19.6902232,14.71242 19.4610469,14.71242 L7.29789258,14.71242 C7.50951832,14.2525688 7.61528488,13.946404 7.61528488,13.7931202 C7.61528488,13.6970537 7.60426367,13.5916271 7.58217494,13.4769411 C7.56008622,13.3622551 7.53369088,13.2351393 7.50285002,13.0960466 C7.47196285,12.9575578 7.45223582,12.8545467 7.44343737,12.7874159 L21.246668,11.034617 C21.466768,11.0056813 21.6475992,10.9030727 21.7886058,10.725634 C21.9296588,10.5485978 22,10.3450918 22,10.1150655 L22,2.75870456 C22,2.50970656 21.9163685,2.29417334 21.748735,2.11190358 Z" id="Path"></path>
                        <path d="M5,18.2068966 C5,18.6639769 5.14640453,19.0539354 5.43941881,19.3769533 C5.73251519,19.7002883 6.08586439,19.862069 6.50004104,19.862069 C6.91397143,19.862069 7.26752586,19.7002883 7.56041701,19.3769533 C7.85343129,19.0539354 8,18.6639769 8,18.2068966 C8,17.7498162 7.85355442,17.3598577 7.56041701,17.0365228 C7.26748481,16.7135048 6.91397143,16.5517241 6.50004104,16.5517241 C6.08590543,16.5517241 5.73235101,16.7135048 5.43941881,17.0365228 C5.14656871,17.3598577 5,17.7498162 5,18.2068966 Z" id="Path"></path>
                    </g>
                </g>
            </g>
        </g>
    </g>
</svg>