<?xml version="1.0" encoding="UTF-8"?>
<svg width="24px" height="20px" viewBox="0 0 24 20" version="1.1" xmlns="http://www.w3.org/2000/svg" xmlns:xlink="http://www.w3.org/1999/xlink">
    <!-- Generator: Sketch 63 (92445) - https://sketch.com -->
    <title>25619</title>
    <desc>Created with Sketch.</desc>
    <g id="Page-1" stroke="none" stroke-width="1" fill="none" fill-rule="evenodd">
        <g id="About" transform="translate(-1164.000000, -36.000000)">
            <g id="Group-32">
                <rect id="Rectangle" stroke="#E4E8EB" fill="#FFFFFF" x="-0.5" y="-0.5" width="1441" height="98"></rect>
                <rect id="Rectangle" stroke="#D8DDE2" x="1152" y="21" width="50" height="50" rx="7"></rect>
                <g id="25619" transform="translate(1164.000000, 36.000000)" fill="#000000" fill-rule="nonzero">
                    <path d="M18.2068966,18.2068966 C18.2068966,18.6639769 18.4094993,19.0539354 18.8132331,19.3769533 C19.2169668,19.7002883 19.7047645,19.862069 20.2762866,19.862069 C20.8469596,19.862069 21.3347574,19.7002883 21.7384911,19.3769533 C22.1426211,19.0539354 22.3448276,18.6639769 22.3448276,18.2068966 C22.3448276,17.7498162 22.1428475,17.3598577 21.7384911,17.0365228 C21.3347574,16.7135048 20.8469596,16.5517241 20.2762866,16.5517241 C19.7047645,16.5517241 19.2169668,16.7135048 18.8132331,17.0365228 C18.4094993,17.3598577 18.2068966,17.7498162 18.2068966,18.2068966 Z" id="Path"></path>
                    <path d="M23.7258927,2.11190358 C23.5431208,1.92988544 23.3269064,1.83885121 23.0768454,1.83885121 L5.75483914,1.83885121 C5.74508929,1.77187135 5.72346785,1.64983818 5.68982327,1.47265104 C5.6561787,1.29536326 5.62980862,1.15415704 5.6105615,1.04868012 C5.59121334,0.94365611 5.555346,0.816640964 5.50235327,0.668188237 C5.44946157,0.519634865 5.38697157,0.402181081 5.31488326,0.316179146 C5.24289599,0.229724304 5.14676141,0.155699232 5.02653005,0.0932484413 C4.90639971,0.031200234 4.76929554,0 4.61552062,0 L0.923255677,0 C0.6730936,0 0.45677817,0.0911852 0.274107316,0.272951725 C0.0913859444,0.454919541 0,0.670553416 0,0.919551413 C0,1.16854941 0.0913859444,1.38408264 0.274107316,1.56605046 C0.456929722,1.74806859 0.67329567,1.83900218 0.923255677,1.83900218 L3.86523646,1.83900218 L6.41798082,13.6636896 C6.39888525,13.701935 6.30032584,13.8837519 6.1223531,14.209593 C5.9444814,14.5354342 5.80267911,14.8202621 5.69699674,15.0644794 C5.59126386,15.3089987 5.53837216,15.498062 5.53837216,15.6320721 C5.53837216,15.8810701 5.62975811,16.0966536 5.81237844,16.2789234 C5.99530188,16.460388 6.2115668,16.5517241 6.46157732,16.5517241 L7.38463093,16.5517241 L20.3077351,16.5517241 L21.230233,16.5517241 C21.480193,16.5517241 21.6966094,16.4604383 21.8792298,16.2789234 C22.0621027,16.096704 22.1533876,15.8811204 22.1533876,15.6320721 C22.1533876,15.3830238 22.0621027,15.1674402 21.8792298,14.985573 C21.69666,14.8037059 21.4802435,14.71242 21.230233,14.71242 L7.96133736,14.71242 C8.1922018,14.2525688 8.3075835,13.946404 8.3075835,13.7931202 C8.3075835,13.6970537 8.29556036,13.5916271 8.27146357,13.4769411 C8.24736678,13.3622551 8.21857187,13.2351393 8.1849273,13.0960466 C8.1512322,12.9575578 8.1297118,12.8545467 8.1201135,12.7874159 L23.1781832,11.034617 C23.4182923,11.0056813 23.6155627,10.9030727 23.7693882,10.725634 C23.9232641,10.5485978 24,10.3450918 24,10.1150655 L24,2.75870456 C24,2.50970656 23.9087656,2.29417334 23.7258927,2.11190358 Z" id="Path"></path>
                    <path d="M4.96551724,18.2068966 C4.96551724,18.6639769 5.16745453,19.0539354 5.57161216,19.3769533 C5.97588302,19.7002883 6.46326123,19.862069 7.03453937,19.862069 C7.60547784,19.862069 8.09313911,19.7002883 8.49712691,19.3769533 C8.90128454,19.0539354 9.10344828,18.6639769 9.10344828,18.2068966 C9.10344828,17.7498162 8.90145438,17.3598577 8.49712691,17.0365228 C8.0930825,16.7135048 7.60547784,16.5517241 7.03453937,16.5517241 C6.46331784,16.5517241 5.97565657,16.7135048 5.57161216,17.0365228 C5.16768098,17.3598577 4.96551724,17.7498162 4.96551724,18.2068966 Z" id="Path"></path>
                </g>
            </g>
        </g>
    </g>
</svg>