<?xml version="1.0" encoding="UTF-8"?>
<svg width="181px" height="180px" viewBox="0 0 181 180" version="1.1" xmlns="http://www.w3.org/2000/svg" xmlns:xlink="http://www.w3.org/1999/xlink">
    <!-- Generator: Sketch 63 (92445) - https://sketch.com -->
    <title>Group 34</title>
    <desc>Created with Sketch.</desc>
    <g id="Page-1" stroke="none" stroke-width="1" fill="none" fill-rule="evenodd">
        <g id="Home" transform="translate(-151.000000, -2053.000000)">
            <rect id="Rectangle" fill="#F6F7F9" opacity="0.763997396" x="0" y="1732" width="1440" height="837"></rect>
            <g id="Group-34" transform="translate(151.500000, 2053.000000)">
                <rect id="Rectangle" fill="#000000" opacity="0.0618722098" x="0" y="0" width="180" height="180" rx="90"></rect>
                <g id="Group-27" transform="translate(59.500000, 61.000000)" fill="#FFFFFF">
                    <path d="M30.1583804,7.68614981 L17.4630443,22.9205532 C16.402352,24.1933839 14.5106579,24.3653561 13.2378272,23.3046638 C11.9649966,22.2439716 11.7930244,20.3522775 12.8537166,19.0794468 L27.8537166,1.0794468 C29.0531019,-0.3598156 31.2636589,-0.3598156 32.4630443,1.0794468 L47.4630443,19.0794468 C48.5237365,20.3522775 48.3517643,22.2439716 47.0789336,23.3046638 C45.8061029,24.3653561 43.9144088,24.1933839 42.8537166,22.9205532 L30.1583804,7.68614981 Z" id="Path-30" fill-rule="nonzero" opacity="0.3"></path>
                    <path d="M56.3160512,21 C57.9729055,21 59.3160512,22.3431458 59.3160512,24 C59.3160512,24.2452854 59.2859692,24.4896451 59.2264787,24.7276069 L52.6733092,50.940285 C51.7829752,54.501621 48.5831103,57 44.9121692,57 L15.4045917,57 C11.7336506,57 8.53378569,54.501621 7.64345169,50.940285 L1.09028216,24.7276069 C0.68843598,23.1202222 1.66571806,21.4914187 3.27310279,21.0895725 C3.5110646,21.030082 3.75542424,21 4.00070966,21 L56.3160512,21 Z M30.1583804,30 C28.5015262,30 27.1583804,31.3431458 27.1583804,33 L27.1583804,33 L27.1583804,45 C27.1583804,46.6568542 28.5015262,48 30.1583804,48 C31.8152347,48 33.1583804,46.6568542 33.1583804,45 L33.1583804,45 L33.1583804,33 C33.1583804,31.3431458 31.8152347,30 30.1583804,30 Z M18.7267865,32.5302104 C18.2979611,30.9298121 16.6529502,29.9800646 15.0525519,30.4088901 C13.4521536,30.8377155 12.5024061,32.4827264 12.9312316,34.0831247 L12.9312316,34.0831247 L16.0370601,45.6742346 C16.4658855,47.2746329 18.1108964,48.2243804 19.7112947,47.795555 C21.311693,47.3667295 22.2614405,45.7217187 21.8326151,44.1213203 L21.8326151,44.1213203 Z M45.264209,30.4088901 C43.6638107,29.9800646 42.0187998,30.9298121 41.5899744,32.5302104 L41.5899744,32.5302104 L38.4841458,44.1213203 C38.0553204,45.7217187 39.0050679,47.3667295 40.6054662,47.795555 C42.2058645,48.2243804 43.8508754,47.2746329 44.2797008,45.6742346 L44.2797008,45.6742346 L47.3855293,34.0831247 C47.8143548,32.4827264 46.8646073,30.8377155 45.264209,30.4088901 Z" id="Combined-Shape"></path>
                </g>
            </g>
        </g>
    </g>
</svg>