<?xml version="1.0" encoding="UTF-8"?>
<svg id="SVGDoc" width="100" height="100" xmlns="http://www.w3.org/2000/svg" version="1.1" xmlns:xlink="http://www.w3.org/1999/xlink" xmlns:avocode="https://avocode.com/" viewBox="0 0 100 100"><defs></defs><desc>Generated with Avocode.</desc><g><g opacity="0.3"><title>Oval</title><path d="M50,100c27.61424,0 50,-22.38576 50,-50c0,-27.61424 -22.38576,-50 -50,-50c-27.61424,0 -50,22.38576 -50,50c0,27.61424 22.38576,50 50,50z" fill="#feb858" fill-opacity="1"></path></g><g opacity="0.3"><title>Oval</title><path d="M50,89c21.53911,0 39,-17.46089 39,-39c0,-21.53911 -17.46089,-39 -39,-39c-21.53911,0 -39,17.46089 -39,39c0,21.53911 17.46089,39 39,39z" fill="#feb858" fill-opacity="1"></path></g><g opacity="-1"><title>Oval</title><path d="M50,78c15.46397,0 28,-12.53603 28,-28c0,-15.46397 -12.53603,-28 -28,-28c-15.46397,0 -28,12.53603 -28,28c0,15.46397 12.53603,28 28,28z" fill="#feb858" fill-opacity="1"></path></g><g opacity="-1"><title>5.0</title><g transform="matrix(1,0,0,1,34,38)"><text dominant-baseline="text-before-edge" style="fill: #ffffff; fill-opacity: 1; font-size: 20px; font-family: 'GT Walsheim Pro Bold', 'GTWalsheimPro-Bold'; font-kerning: normal" ><tspan style="fill: #ffffff; fill-opacity: 1; font-size: 20px; font-family: 'GT Walsheim Pro Bold', 'GTWalsheimPro-Bold'; font-kerning: normal">5.0</tspan></text></g></g></g></svg>