<?xml version="1.0" encoding="UTF-8"?>
<svg id="SVGDoc" width="118" height="121" xmlns="http://www.w3.org/2000/svg" version="1.1" xmlns:xlink="http://www.w3.org/1999/xlink" xmlns:avocode="https://avocode.com/" viewBox="0 0 118 121">
    <defs>
        <mask id="Mask1027" x="-1" y="-1" width="2" height="2">
            <rect width="90" height="90" x="14" y="0" fill="#ffffff"></rect>
            <path d="M59,90c24.85281,0 45,-20.14719 45,-45c0,-24.85281 -20.14719,-45 -45,-45c-24.85281,0 -45,20.14719 -45,45c0,24.85281 20.14719,45 45,45z" fill="#000000"></path>
        </mask>
        <filter id="Filter1031" width="146" height="163" x="-14" y="-28" filterUnits="userSpaceOnUse">
            <feOffset dx="0" dy="17" result="FeOffset1032Out" in="SourceGraphic"></feOffset>
            <feGaussianBlur stdDeviation="7.2 7.2" result="FeGaussianBlur1033Out" in="FeOffset1032Out"></feGaussianBlur>
        </filter>
    </defs>
    <desc>Generated with Avocode.</desc>
    <g>
        <g>
            <title>Oval</title>
            <g filter="url(#Filter1031)">
                <path d="M59,90c24.85281,0 45,-20.14719 45,-45c0,-24.85281 -20.14719,-45 -45,-45c-24.85281,0 -45,20.14719 -45,45c0,24.85281 20.14719,45 45,45z" fill="none" stroke-opacity="0.15" stroke-width="0" mask="url(&quot;#Mask1027&quot;)"></path>
                <path d="M59,90c24.85281,0 45,-20.14719 45,-45c0,-24.85281 -20.14719,-45 -45,-45c-24.85281,0 -45,20.14719 -45,45c0,24.85281 20.14719,45 45,45z" fill="#f71d1f" fill-opacity="0.15"></path>
            </g>
            <path d="M59,90c24.85281,0 45,-20.14719 45,-45c0,-24.85281 -20.14719,-45 -45,-45c-24.85281,0 -45,20.14719 -45,45c0,24.85281 20.14719,45 45,45z" fill="#de0922" fill-opacity="1"></path>
        </g>
        <g>
            <title>Combined Shape</title>
            <path d="M45,36c0,-1.65685 1.34315,-3 3,-3h21.99004c1.65685,0 3,1.34315 3,3v13.80774l0.0349,-0.01372v7.3823c0,0.40446 -0.24364,0.7691 -0.61732,0.92388c-0.37367,0.15478 -0.80379,0.06923 -1.08979,-0.21677l-3.89089,-3.89089l-19.42694,0c-1.65685,0 -3,-1.34315 -3,-3zM58.99502,48.38453c3.29489,0 6.04923,-1.65025 8.16197,-4.81482c0.42874,-0.64219 0.25495,-1.50985 -0.38816,-1.93799c-0.64311,-0.42813 -1.51202,-0.25459 -1.94076,0.38761c-1.61927,2.42544 -3.52993,3.57019 -5.83305,3.57019c-2.30312,0 -4.21378,-1.14475 -5.83305,-3.57019c-0.42874,-0.64219 -1.29765,-0.81573 -1.94076,-0.38761c-0.64311,0.42814 -0.8169,1.2958 -0.38816,1.93799c2.11274,3.16457 4.86708,4.81482 8.16197,4.81482z" fill="#ffffff" fill-opacity="1"></path>
        </g>
    </g>
</svg>